<svg width="183" height="180" viewBox="0 0 183 180" fill="none" xmlns="http://www.w3.org/2000/svg">
<path d="M154.105 47.3684V75.6947C154.105 75.6947 134.938 75.7895 134.842 75.6947V47.3684H105.947C105.947 47.3684 106.044 28.5158 105.947 28.4211H134.842V0H154.105V28.4211H183V47.3684H154.105ZM125.211 85.2632V56.8421H96.3158V28.4211H19.2632C8.66842 28.4211 0 36.9474 0 47.3684V161.053C0 171.474 8.66842 180 19.2632 180H134.842C145.437 180 154.105 171.474 154.105 161.053V85.2632H125.211ZM19.2632 161.053L48.1579 123.158L67.4211 151.579L96.3158 113.684L134.842 161.053H19.2632Z" fill="black"/>
</svg>
