<svg width="196" height="182" viewBox="0 0 196 182" fill="none" xmlns="http://www.w3.org/2000/svg">
<path d="M25.5 26.5V0.625H42.5V26.5H68V43.75H42.5V69.625H25.5V43.75H0V26.5H25.5ZM51 78.25V52.375H76.5V26.5H136L151.555 43.75H178.5C187.85 43.75 195.5 51.5125 195.5 61V164.5C195.5 173.988 187.85 181.75 178.5 181.75H42.5C33.15 181.75 25.5 173.988 25.5 164.5V78.25H51ZM110.5 155.875C133.96 155.875 153 136.555 153 112.75C153 88.945 133.96 69.625 110.5 69.625C87.04 69.625 68 88.945 68 112.75C68 136.555 87.04 155.875 110.5 155.875ZM83.3 112.75C83.3 128.016 95.455 140.35 110.5 140.35C125.545 140.35 137.7 128.016 137.7 112.75C137.7 97.4838 125.545 85.15 110.5 85.15C95.455 85.15 83.3 97.4838 83.3 112.75Z" fill="black"/>
</svg>
